<mxfile host="Electron" agent="Mozilla/5.0 (Windows NT 10.0; Win64; x64) AppleWebKit/537.36 (KHTML, like Gecko) draw.io/28.1.2 Chrome/138.0.7204.243 Electron/37.4.0 Safari/537.36" version="28.1.2">
  <diagram name="Page-1" id="c7488fd3-1785-93aa-aadb-54a6760d102a">
    <mxGraphModel dx="2142" dy="1476" grid="1" gridSize="10" guides="1" tooltips="1" connect="1" arrows="1" fold="1" page="1" pageScale="1" pageWidth="1100" pageHeight="850" background="none" math="0" shadow="0">
      <root>
        <mxCell id="0" />
        <mxCell id="1" parent="0" />
        <mxCell id="2b4e8129b02d487f-1" value="Extract Corona Numbers To Text (Single Package)" style="swimlane;html=1;childLayout=stackLayout;horizontal=1;startSize=20;horizontalStack=0;rounded=0;shadow=0;labelBackgroundColor=none;strokeWidth=1;fontFamily=Verdana;fontSize=8;align=center;fillColor=#f5f5f5;fontColor=#333333;strokeColor=#666666;" parent="1" vertex="1">
          <mxGeometry x="180" y="60" width="1060" height="1290" as="geometry">
            <mxRectangle x="180" y="70" width="60" height="20" as="alternateBounds" />
          </mxGeometry>
        </mxCell>
        <mxCell id="2b4e8129b02d487f-2" value="Initialize Edge" style="swimlane;html=1;startSize=20;horizontal=0;fillColor=#dae8fc;strokeColor=#6c8ebf;" parent="2b4e8129b02d487f-1" vertex="1">
          <mxGeometry y="20" width="1060" height="150" as="geometry" />
        </mxCell>
        <mxCell id="2b4e8129b02d487f-18" style="edgeStyle=orthogonalEdgeStyle;rounded=0;html=1;labelBackgroundColor=none;startArrow=none;startFill=0;startSize=5;endArrow=classicThin;endFill=1;endSize=5;jettySize=auto;orthogonalLoop=1;strokeWidth=1;fontFamily=Verdana;fontSize=8" parent="2b4e8129b02d487f-2" source="2b4e8129b02d487f-5" target="2b4e8129b02d487f-6" edge="1">
          <mxGeometry relative="1" as="geometry" />
        </mxCell>
        <mxCell id="2b4e8129b02d487f-5" value="Start" style="ellipse;whiteSpace=wrap;html=1;rounded=0;shadow=0;labelBackgroundColor=none;strokeWidth=1;fontFamily=Verdana;fontSize=8;align=center;fillColor=#dae8fc;strokeColor=#6c8ebf;fontStyle=1" parent="2b4e8129b02d487f-2" vertex="1">
          <mxGeometry x="30" y="10" width="50" height="50" as="geometry" />
        </mxCell>
        <mxCell id="lynWyJ27UmlPL52xSpIG-3" style="edgeStyle=orthogonalEdgeStyle;rounded=0;orthogonalLoop=1;jettySize=auto;html=1;exitX=1;exitY=0.5;exitDx=0;exitDy=0;entryX=0;entryY=0.5;entryDx=0;entryDy=0;" parent="2b4e8129b02d487f-2" source="2b4e8129b02d487f-6" target="lynWyJ27UmlPL52xSpIG-2" edge="1">
          <mxGeometry relative="1" as="geometry" />
        </mxCell>
        <mxCell id="2b4e8129b02d487f-6" value="Launch Edge Browser" style="rounded=1;whiteSpace=wrap;html=1;shadow=0;labelBackgroundColor=none;strokeWidth=1;fontFamily=Verdana;fontSize=8;align=center;fillColor=#dae8fc;strokeColor=#6c8ebf;fontStyle=1" parent="2b4e8129b02d487f-2" vertex="1">
          <mxGeometry x="100" y="16.49999999999997" width="70" height="37" as="geometry" />
        </mxCell>
        <mxCell id="lynWyJ27UmlPL52xSpIG-4" value="NO" style="edgeStyle=orthogonalEdgeStyle;rounded=0;orthogonalLoop=1;jettySize=auto;html=1;exitX=0.5;exitY=1;exitDx=0;exitDy=0;entryX=0.5;entryY=0;entryDx=0;entryDy=0;fontStyle=1" parent="2b4e8129b02d487f-2" source="lynWyJ27UmlPL52xSpIG-2" target="lynWyJ27UmlPL52xSpIG-1" edge="1">
          <mxGeometry relative="1" as="geometry" />
        </mxCell>
        <mxCell id="lynWyJ27UmlPL52xSpIG-6" value="Yes" style="edgeStyle=orthogonalEdgeStyle;rounded=0;orthogonalLoop=1;jettySize=auto;html=1;exitX=1;exitY=0.5;exitDx=0;exitDy=0;entryX=0;entryY=0.5;entryDx=0;entryDy=0;fontStyle=1" parent="2b4e8129b02d487f-2" source="lynWyJ27UmlPL52xSpIG-2" target="lynWyJ27UmlPL52xSpIG-25" edge="1">
          <mxGeometry relative="1" as="geometry">
            <mxPoint x="300" y="35" as="targetPoint" />
          </mxGeometry>
        </mxCell>
        <mxCell id="lynWyJ27UmlPL52xSpIG-2" value="App&amp;nbsp;&lt;div&gt;Launched&amp;nbsp;&lt;/div&gt;&lt;div&gt;Success&lt;/div&gt;" style="rhombus;whiteSpace=wrap;html=1;fillColor=#e1d5e7;strokeColor=#9673a6;fontSize=7;fontStyle=1" parent="2b4e8129b02d487f-2" vertex="1">
          <mxGeometry x="190" y="5" width="60" height="60" as="geometry" />
        </mxCell>
        <mxCell id="lynWyJ27UmlPL52xSpIG-1" value="SE01" style="ellipse;whiteSpace=wrap;html=1;fontStyle=1;fillColor=#e51400;fontColor=#ffffff;strokeColor=#B20000;" parent="2b4e8129b02d487f-2" vertex="1">
          <mxGeometry x="195" y="110" width="50" height="30" as="geometry" />
        </mxCell>
        <mxCell id="lynWyJ27UmlPL52xSpIG-25" value="&lt;font face=&quot;Helvetica&quot;&gt;&lt;span style=&quot;font-size: 12px; text-wrap-mode: nowrap;&quot;&gt;Take Input&amp;nbsp;&lt;/span&gt;&lt;/font&gt;&lt;div&gt;&lt;font face=&quot;Helvetica&quot;&gt;&lt;span style=&quot;font-size: 12px; text-wrap-mode: nowrap;&quot;&gt;From User&lt;/span&gt;&lt;/font&gt;&lt;/div&gt;" style="ellipse;whiteSpace=wrap;html=1;rounded=0;shadow=0;labelBackgroundColor=none;strokeWidth=1;fontFamily=Verdana;fontSize=8;align=center;fillColor=#d5e8d4;strokeColor=#82b366;fontStyle=1" parent="2b4e8129b02d487f-2" vertex="1">
          <mxGeometry x="300" y="5" width="80" height="60" as="geometry" />
        </mxCell>
        <mxCell id="7SpoKRPtstdozS_-fgGi-1" value="Take Input From User" style="swimlane;html=1;startSize=20;horizontal=0;fillColor=#d5e8d4;strokeColor=#82b366;" vertex="1" parent="2b4e8129b02d487f-1">
          <mxGeometry y="170" width="1060" height="160" as="geometry" />
        </mxCell>
        <mxCell id="7SpoKRPtstdozS_-fgGi-2" style="edgeStyle=orthogonalEdgeStyle;rounded=0;orthogonalLoop=1;jettySize=auto;html=1;exitX=1;exitY=0.5;exitDx=0;exitDy=0;entryX=0;entryY=0.5;entryDx=0;entryDy=0;" edge="1" parent="7SpoKRPtstdozS_-fgGi-1" source="7SpoKRPtstdozS_-fgGi-3" target="7SpoKRPtstdozS_-fgGi-5">
          <mxGeometry relative="1" as="geometry" />
        </mxCell>
        <mxCell id="7SpoKRPtstdozS_-fgGi-3" value="Initialize Apps" style="ellipse;whiteSpace=wrap;html=1;rounded=0;shadow=0;labelBackgroundColor=none;strokeWidth=1;fontFamily=Verdana;fontSize=8;align=center;fillColor=#dae8fc;strokeColor=#6c8ebf;fontStyle=1" vertex="1" parent="7SpoKRPtstdozS_-fgGi-1">
          <mxGeometry x="30" y="20" width="50" height="50" as="geometry" />
        </mxCell>
        <mxCell id="7SpoKRPtstdozS_-fgGi-4" style="edgeStyle=orthogonalEdgeStyle;rounded=0;orthogonalLoop=1;jettySize=auto;html=1;exitX=1;exitY=0.5;exitDx=0;exitDy=0;entryX=0;entryY=0.5;entryDx=0;entryDy=0;" edge="1" parent="7SpoKRPtstdozS_-fgGi-1" source="7SpoKRPtstdozS_-fgGi-5">
          <mxGeometry relative="1" as="geometry">
            <mxPoint x="230" y="45" as="targetPoint" />
          </mxGeometry>
        </mxCell>
        <mxCell id="7SpoKRPtstdozS_-fgGi-5" value="Take Input From USer" style="rounded=1;whiteSpace=wrap;html=1;shadow=0;labelBackgroundColor=none;strokeWidth=1;fontFamily=Verdana;fontSize=8;align=center;fillColor=#d5e8d4;strokeColor=#82b366;fontStyle=1" vertex="1" parent="7SpoKRPtstdozS_-fgGi-1">
          <mxGeometry x="120" y="26.5" width="90" height="37" as="geometry" />
        </mxCell>
        <mxCell id="7SpoKRPtstdozS_-fgGi-8" value="Access Corona worldometer page" style="ellipse;whiteSpace=wrap;html=1;rounded=0;shadow=0;labelBackgroundColor=none;strokeWidth=1;fontFamily=Verdana;fontSize=8;align=center;fillColor=#ffe6cc;strokeColor=#d79b00;fontStyle=1" vertex="1" parent="7SpoKRPtstdozS_-fgGi-1">
          <mxGeometry x="360" y="15" width="60" height="60" as="geometry" />
        </mxCell>
        <mxCell id="7SpoKRPtstdozS_-fgGi-23" value="No" style="edgeStyle=orthogonalEdgeStyle;rounded=0;orthogonalLoop=1;jettySize=auto;html=1;exitX=0.5;exitY=1;exitDx=0;exitDy=0;entryX=0.5;entryY=0;entryDx=0;entryDy=0;fontStyle=1" edge="1" parent="7SpoKRPtstdozS_-fgGi-1" source="7SpoKRPtstdozS_-fgGi-25" target="7SpoKRPtstdozS_-fgGi-26">
          <mxGeometry relative="1" as="geometry" />
        </mxCell>
        <mxCell id="7SpoKRPtstdozS_-fgGi-24" value="Yes" style="edgeStyle=orthogonalEdgeStyle;rounded=0;orthogonalLoop=1;jettySize=auto;html=1;exitX=1;exitY=0.5;exitDx=0;exitDy=0;entryX=0;entryY=0.5;entryDx=0;entryDy=0;fontStyle=1" edge="1" parent="7SpoKRPtstdozS_-fgGi-1" source="7SpoKRPtstdozS_-fgGi-25">
          <mxGeometry relative="1" as="geometry">
            <mxPoint x="360" y="45" as="targetPoint" />
          </mxGeometry>
        </mxCell>
        <mxCell id="7SpoKRPtstdozS_-fgGi-25" value="Valid Country Name ?" style="rhombus;whiteSpace=wrap;html=1;fillColor=#e1d5e7;strokeColor=#9673a6;fontSize=7;fontStyle=1" vertex="1" parent="7SpoKRPtstdozS_-fgGi-1">
          <mxGeometry x="230" y="15" width="60" height="60" as="geometry" />
        </mxCell>
        <mxCell id="7SpoKRPtstdozS_-fgGi-26" value="BE01" style="ellipse;whiteSpace=wrap;html=1;fontStyle=1;fillColor=#e51400;fontColor=#ffffff;strokeColor=#B20000;" vertex="1" parent="7SpoKRPtstdozS_-fgGi-1">
          <mxGeometry x="235" y="120" width="50" height="30" as="geometry" />
        </mxCell>
        <mxCell id="2b4e8129b02d487f-3" value="Access Corona world&amp;nbsp;&lt;div&gt;ometer page&lt;/div&gt;" style="swimlane;html=1;startSize=20;horizontal=0;fillColor=#ffe6cc;strokeColor=#d79b00;" parent="2b4e8129b02d487f-1" vertex="1">
          <mxGeometry y="330" width="1060" height="160" as="geometry" />
        </mxCell>
        <mxCell id="lynWyJ27UmlPL52xSpIG-29" style="edgeStyle=orthogonalEdgeStyle;rounded=0;orthogonalLoop=1;jettySize=auto;html=1;exitX=1;exitY=0.5;exitDx=0;exitDy=0;entryX=0;entryY=0.5;entryDx=0;entryDy=0;" parent="2b4e8129b02d487f-3" source="lynWyJ27UmlPL52xSpIG-27" target="lynWyJ27UmlPL52xSpIG-28" edge="1">
          <mxGeometry relative="1" as="geometry" />
        </mxCell>
        <mxCell id="lynWyJ27UmlPL52xSpIG-27" value="Take Input From User" style="ellipse;whiteSpace=wrap;html=1;rounded=0;shadow=0;labelBackgroundColor=none;strokeWidth=1;fontFamily=Verdana;fontSize=8;align=center;fillColor=#d5e8d4;strokeColor=#82b366;fontStyle=1" parent="2b4e8129b02d487f-3" vertex="1">
          <mxGeometry x="30" y="20" width="50" height="50" as="geometry" />
        </mxCell>
        <mxCell id="lynWyJ27UmlPL52xSpIG-32" style="edgeStyle=orthogonalEdgeStyle;rounded=0;orthogonalLoop=1;jettySize=auto;html=1;exitX=1;exitY=0.5;exitDx=0;exitDy=0;entryX=0;entryY=0.5;entryDx=0;entryDy=0;" parent="2b4e8129b02d487f-3" source="lynWyJ27UmlPL52xSpIG-28" edge="1">
          <mxGeometry relative="1" as="geometry">
            <mxPoint x="230" y="45" as="targetPoint" />
          </mxGeometry>
        </mxCell>
        <mxCell id="lynWyJ27UmlPL52xSpIG-28" value="go to url www.google.com" style="rounded=1;whiteSpace=wrap;html=1;shadow=0;labelBackgroundColor=none;strokeWidth=1;fontFamily=Verdana;fontSize=8;align=center;fillColor=#d5e8d4;strokeColor=#82b366;fontStyle=1" parent="2b4e8129b02d487f-3" vertex="1">
          <mxGeometry x="120" y="26.5" width="90" height="37" as="geometry" />
        </mxCell>
        <mxCell id="NPYk2-gNOx9nYLWtcwtR-2" style="edgeStyle=orthogonalEdgeStyle;rounded=0;orthogonalLoop=1;jettySize=auto;html=1;exitX=1;exitY=0.5;exitDx=0;exitDy=0;entryX=0;entryY=0.5;entryDx=0;entryDy=0;" parent="2b4e8129b02d487f-3" source="lynWyJ27UmlPL52xSpIG-35" target="NPYk2-gNOx9nYLWtcwtR-1" edge="1">
          <mxGeometry relative="1" as="geometry" />
        </mxCell>
        <mxCell id="lynWyJ27UmlPL52xSpIG-35" value="Type &quot;{country input} corona virus worldometer&quot; in google search bar" style="rounded=1;whiteSpace=wrap;html=1;shadow=0;labelBackgroundColor=none;strokeWidth=1;fontFamily=Verdana;fontSize=8;align=center;fillColor=#d5e8d4;strokeColor=#82b366;fontStyle=1" parent="2b4e8129b02d487f-3" vertex="1">
          <mxGeometry x="230" y="10" width="120" height="70" as="geometry" />
        </mxCell>
        <mxCell id="CSiGIN4jMo8cBrUreZCy-11" style="edgeStyle=orthogonalEdgeStyle;rounded=0;orthogonalLoop=1;jettySize=auto;html=1;exitX=1;exitY=0.5;exitDx=0;exitDy=0;entryX=0;entryY=0.5;entryDx=0;entryDy=0;" parent="2b4e8129b02d487f-3" source="NPYk2-gNOx9nYLWtcwtR-1" target="CSiGIN4jMo8cBrUreZCy-10" edge="1">
          <mxGeometry relative="1" as="geometry" />
        </mxCell>
        <mxCell id="NPYk2-gNOx9nYLWtcwtR-1" value="Click google search" style="rounded=1;whiteSpace=wrap;html=1;shadow=0;labelBackgroundColor=none;strokeWidth=1;fontFamily=Verdana;fontSize=8;align=center;fillColor=#d5e8d4;strokeColor=#82b366;fontStyle=1" parent="2b4e8129b02d487f-3" vertex="1">
          <mxGeometry x="370" y="26.5" width="90" height="37" as="geometry" />
        </mxCell>
        <mxCell id="CSiGIN4jMo8cBrUreZCy-13" value="No" style="edgeStyle=orthogonalEdgeStyle;rounded=0;orthogonalLoop=1;jettySize=auto;html=1;exitX=0.5;exitY=1;exitDx=0;exitDy=0;entryX=0.5;entryY=0;entryDx=0;entryDy=0;fontStyle=1" parent="2b4e8129b02d487f-3" source="CSiGIN4jMo8cBrUreZCy-10" target="CSiGIN4jMo8cBrUreZCy-12" edge="1">
          <mxGeometry relative="1" as="geometry" />
        </mxCell>
        <mxCell id="CSiGIN4jMo8cBrUreZCy-14" value="Yes" style="edgeStyle=orthogonalEdgeStyle;rounded=0;orthogonalLoop=1;jettySize=auto;html=1;exitX=1;exitY=0.5;exitDx=0;exitDy=0;fontStyle=1" parent="2b4e8129b02d487f-3" source="CSiGIN4jMo8cBrUreZCy-10" edge="1">
          <mxGeometry relative="1" as="geometry">
            <mxPoint x="610" y="45" as="targetPoint" />
          </mxGeometry>
        </mxCell>
        <mxCell id="CSiGIN4jMo8cBrUreZCy-10" value="Corona world&amp;nbsp;&lt;div&gt;ometer page appeared first ?&lt;/div&gt;" style="rhombus;whiteSpace=wrap;html=1;fillColor=#e1d5e7;strokeColor=#9673a6;fontSize=7;fontStyle=1" parent="2b4e8129b02d487f-3" vertex="1">
          <mxGeometry x="480" y="6.25" width="80" height="77.5" as="geometry" />
        </mxCell>
        <mxCell id="CSiGIN4jMo8cBrUreZCy-12" value="BE02" style="ellipse;whiteSpace=wrap;html=1;fontStyle=1;fillColor=#e51400;fontColor=#ffffff;strokeColor=#B20000;" parent="2b4e8129b02d487f-3" vertex="1">
          <mxGeometry x="495" y="110.5" width="50" height="30" as="geometry" />
        </mxCell>
        <mxCell id="7SpoKRPtstdozS_-fgGi-44" value="Dispatch Data" style="ellipse;whiteSpace=wrap;html=1;fontStyle=1;fillColor=#f5f5f5;strokeColor=#666666;fontColor=#333333;" vertex="1" parent="2b4e8129b02d487f-3">
          <mxGeometry x="610" y="12.5" width="60" height="67.5" as="geometry" />
        </mxCell>
        <mxCell id="m5smUrmSbZEZKF3f6fhh-96" value="Dispatch Data" style="swimlane;html=1;startSize=20;horizontal=0;fillColor=#f5f5f5;strokeColor=#666666;fontColor=#333333;" parent="2b4e8129b02d487f-1" vertex="1">
          <mxGeometry y="490" width="1060" height="210" as="geometry" />
        </mxCell>
        <mxCell id="m5smUrmSbZEZKF3f6fhh-97" style="edgeStyle=orthogonalEdgeStyle;rounded=0;orthogonalLoop=1;jettySize=auto;html=1;exitX=1;exitY=0.5;exitDx=0;exitDy=0;entryX=0;entryY=0.5;entryDx=0;entryDy=0;" parent="m5smUrmSbZEZKF3f6fhh-96" source="m5smUrmSbZEZKF3f6fhh-98" target="m5smUrmSbZEZKF3f6fhh-100" edge="1">
          <mxGeometry relative="1" as="geometry" />
        </mxCell>
        <mxCell id="m5smUrmSbZEZKF3f6fhh-98" value="Access Corona world ometer page" style="ellipse;whiteSpace=wrap;html=1;rounded=0;shadow=0;labelBackgroundColor=none;strokeWidth=1;fontFamily=Verdana;fontSize=8;align=center;fillColor=#ffe6cc;strokeColor=#d79b00;fontStyle=1" parent="m5smUrmSbZEZKF3f6fhh-96" vertex="1">
          <mxGeometry x="30" y="20" width="70" height="90" as="geometry" />
        </mxCell>
        <mxCell id="7SpoKRPtstdozS_-fgGi-47" style="edgeStyle=orthogonalEdgeStyle;rounded=0;orthogonalLoop=1;jettySize=auto;html=1;exitX=1;exitY=0.5;exitDx=0;exitDy=0;entryX=0;entryY=0.5;entryDx=0;entryDy=0;" edge="1" parent="m5smUrmSbZEZKF3f6fhh-96" source="m5smUrmSbZEZKF3f6fhh-100" target="7SpoKRPtstdozS_-fgGi-45">
          <mxGeometry relative="1" as="geometry" />
        </mxCell>
        <mxCell id="m5smUrmSbZEZKF3f6fhh-100" value="Extract Corona Cases Value" style="rounded=1;whiteSpace=wrap;html=1;shadow=0;labelBackgroundColor=none;strokeWidth=1;fontFamily=Verdana;fontSize=8;align=center;fillColor=#f5f5f5;strokeColor=#666666;fontStyle=1;fontColor=#333333;" parent="m5smUrmSbZEZKF3f6fhh-96" vertex="1">
          <mxGeometry x="140" y="40.75" width="80" height="48.5" as="geometry" />
        </mxCell>
        <mxCell id="7SpoKRPtstdozS_-fgGi-48" style="edgeStyle=orthogonalEdgeStyle;rounded=0;orthogonalLoop=1;jettySize=auto;html=1;exitX=1;exitY=0.5;exitDx=0;exitDy=0;entryX=0;entryY=0.5;entryDx=0;entryDy=0;" edge="1" parent="m5smUrmSbZEZKF3f6fhh-96" source="7SpoKRPtstdozS_-fgGi-45" target="7SpoKRPtstdozS_-fgGi-46">
          <mxGeometry relative="1" as="geometry" />
        </mxCell>
        <mxCell id="7SpoKRPtstdozS_-fgGi-45" value="Extract Corona Deaths Value" style="rounded=1;whiteSpace=wrap;html=1;shadow=0;labelBackgroundColor=none;strokeWidth=1;fontFamily=Verdana;fontSize=8;align=center;fillColor=#f5f5f5;strokeColor=#666666;fontStyle=1;fontColor=#333333;" vertex="1" parent="m5smUrmSbZEZKF3f6fhh-96">
          <mxGeometry x="240" y="40.75" width="80" height="48.5" as="geometry" />
        </mxCell>
        <mxCell id="7SpoKRPtstdozS_-fgGi-50" style="edgeStyle=orthogonalEdgeStyle;rounded=0;orthogonalLoop=1;jettySize=auto;html=1;exitX=1;exitY=0.5;exitDx=0;exitDy=0;entryX=0;entryY=0.5;entryDx=0;entryDy=0;" edge="1" parent="m5smUrmSbZEZKF3f6fhh-96" source="7SpoKRPtstdozS_-fgGi-46" target="7SpoKRPtstdozS_-fgGi-49">
          <mxGeometry relative="1" as="geometry" />
        </mxCell>
        <mxCell id="7SpoKRPtstdozS_-fgGi-46" value="Extract Corona Recovered Value" style="rounded=1;whiteSpace=wrap;html=1;shadow=0;labelBackgroundColor=none;strokeWidth=1;fontFamily=Verdana;fontSize=8;align=center;fillColor=#f5f5f5;strokeColor=#666666;fontStyle=1;fontColor=#333333;" vertex="1" parent="m5smUrmSbZEZKF3f6fhh-96">
          <mxGeometry x="340" y="40.75" width="80" height="48.5" as="geometry" />
        </mxCell>
        <mxCell id="7SpoKRPtstdozS_-fgGi-52" value="No" style="edgeStyle=orthogonalEdgeStyle;rounded=0;orthogonalLoop=1;jettySize=auto;html=1;exitX=0.5;exitY=1;exitDx=0;exitDy=0;entryX=0.5;entryY=0;entryDx=0;entryDy=0;fontStyle=1" edge="1" parent="m5smUrmSbZEZKF3f6fhh-96" source="7SpoKRPtstdozS_-fgGi-49" target="7SpoKRPtstdozS_-fgGi-51">
          <mxGeometry relative="1" as="geometry" />
        </mxCell>
        <mxCell id="7SpoKRPtstdozS_-fgGi-54" style="edgeStyle=orthogonalEdgeStyle;rounded=0;orthogonalLoop=1;jettySize=auto;html=1;exitX=1;exitY=0.5;exitDx=0;exitDy=0;entryX=0;entryY=0.5;entryDx=0;entryDy=0;" edge="1" parent="m5smUrmSbZEZKF3f6fhh-96" source="7SpoKRPtstdozS_-fgGi-49" target="7SpoKRPtstdozS_-fgGi-53">
          <mxGeometry relative="1" as="geometry" />
        </mxCell>
        <mxCell id="7SpoKRPtstdozS_-fgGi-49" value="Check Data&amp;nbsp;&lt;div&gt;Valid ?&lt;/div&gt;" style="rhombus;whiteSpace=wrap;html=1;fillColor=#e1d5e7;strokeColor=#9673a6;fontSize=7;fontStyle=1" vertex="1" parent="m5smUrmSbZEZKF3f6fhh-96">
          <mxGeometry x="470" y="26.25" width="80" height="77.5" as="geometry" />
        </mxCell>
        <mxCell id="7SpoKRPtstdozS_-fgGi-51" value="BE03" style="ellipse;whiteSpace=wrap;html=1;fontStyle=1;fillColor=#e51400;fontColor=#ffffff;strokeColor=#B20000;" vertex="1" parent="m5smUrmSbZEZKF3f6fhh-96">
          <mxGeometry x="485" y="160" width="50" height="30" as="geometry" />
        </mxCell>
        <mxCell id="7SpoKRPtstdozS_-fgGi-53" value="Dispatch To Queue (virtual) no queue in real time" style="rounded=1;whiteSpace=wrap;html=1;shadow=0;labelBackgroundColor=none;strokeWidth=1;fontFamily=Verdana;fontSize=8;align=center;fillColor=#f5f5f5;strokeColor=#666666;fontStyle=1;fontColor=#333333;" vertex="1" parent="m5smUrmSbZEZKF3f6fhh-96">
          <mxGeometry x="600" y="40.75" width="80" height="48.5" as="geometry" />
        </mxCell>
        <mxCell id="7SpoKRPtstdozS_-fgGi-55" value="Initialize Note Pad" style="swimlane;html=1;startSize=20;horizontal=0;fillColor=#fff2cc;strokeColor=#d6b656;" vertex="1" parent="2b4e8129b02d487f-1">
          <mxGeometry y="700" width="1060" height="150" as="geometry" />
        </mxCell>
        <mxCell id="7SpoKRPtstdozS_-fgGi-56" style="edgeStyle=orthogonalEdgeStyle;rounded=0;html=1;labelBackgroundColor=none;startArrow=none;startFill=0;startSize=5;endArrow=classicThin;endFill=1;endSize=5;jettySize=auto;orthogonalLoop=1;strokeWidth=1;fontFamily=Verdana;fontSize=8" edge="1" parent="7SpoKRPtstdozS_-fgGi-55" source="7SpoKRPtstdozS_-fgGi-57" target="7SpoKRPtstdozS_-fgGi-59">
          <mxGeometry relative="1" as="geometry" />
        </mxCell>
        <mxCell id="7SpoKRPtstdozS_-fgGi-57" value="Dispatch Data" style="ellipse;whiteSpace=wrap;html=1;rounded=0;shadow=0;labelBackgroundColor=none;strokeWidth=1;fontFamily=Verdana;fontSize=8;align=center;fillColor=#f5f5f5;strokeColor=#666666;fontStyle=1;fontColor=#333333;" vertex="1" parent="7SpoKRPtstdozS_-fgGi-55">
          <mxGeometry x="30" y="10" width="50" height="50" as="geometry" />
        </mxCell>
        <mxCell id="7SpoKRPtstdozS_-fgGi-58" style="edgeStyle=orthogonalEdgeStyle;rounded=0;orthogonalLoop=1;jettySize=auto;html=1;exitX=1;exitY=0.5;exitDx=0;exitDy=0;entryX=0;entryY=0.5;entryDx=0;entryDy=0;" edge="1" parent="7SpoKRPtstdozS_-fgGi-55" source="7SpoKRPtstdozS_-fgGi-59" target="7SpoKRPtstdozS_-fgGi-62">
          <mxGeometry relative="1" as="geometry" />
        </mxCell>
        <mxCell id="7SpoKRPtstdozS_-fgGi-59" value="Launch Note Pad App" style="rounded=1;whiteSpace=wrap;html=1;shadow=0;labelBackgroundColor=none;strokeWidth=1;fontFamily=Verdana;fontSize=8;align=center;fillColor=#fff2cc;strokeColor=#d6b656;fontStyle=1" vertex="1" parent="7SpoKRPtstdozS_-fgGi-55">
          <mxGeometry x="100" y="16.49999999999997" width="70" height="37" as="geometry" />
        </mxCell>
        <mxCell id="7SpoKRPtstdozS_-fgGi-60" value="NO" style="edgeStyle=orthogonalEdgeStyle;rounded=0;orthogonalLoop=1;jettySize=auto;html=1;exitX=0.5;exitY=1;exitDx=0;exitDy=0;entryX=0.5;entryY=0;entryDx=0;entryDy=0;fontStyle=1" edge="1" parent="7SpoKRPtstdozS_-fgGi-55" source="7SpoKRPtstdozS_-fgGi-62" target="7SpoKRPtstdozS_-fgGi-63">
          <mxGeometry relative="1" as="geometry" />
        </mxCell>
        <mxCell id="7SpoKRPtstdozS_-fgGi-61" value="Yes" style="edgeStyle=orthogonalEdgeStyle;rounded=0;orthogonalLoop=1;jettySize=auto;html=1;exitX=1;exitY=0.5;exitDx=0;exitDy=0;entryX=0;entryY=0.5;entryDx=0;entryDy=0;fontStyle=1" edge="1" parent="7SpoKRPtstdozS_-fgGi-55" source="7SpoKRPtstdozS_-fgGi-62">
          <mxGeometry relative="1" as="geometry">
            <mxPoint x="300" y="35" as="targetPoint" />
          </mxGeometry>
        </mxCell>
        <mxCell id="7SpoKRPtstdozS_-fgGi-62" value="App&amp;nbsp;&lt;div&gt;Launched&amp;nbsp;&lt;/div&gt;&lt;div&gt;Success&lt;/div&gt;" style="rhombus;whiteSpace=wrap;html=1;fillColor=#e1d5e7;strokeColor=#9673a6;fontSize=7;fontStyle=1" vertex="1" parent="7SpoKRPtstdozS_-fgGi-55">
          <mxGeometry x="190" y="5" width="60" height="60" as="geometry" />
        </mxCell>
        <mxCell id="7SpoKRPtstdozS_-fgGi-63" value="SE01" style="ellipse;whiteSpace=wrap;html=1;fontStyle=1;fillColor=#e51400;fontColor=#ffffff;strokeColor=#B20000;" vertex="1" parent="7SpoKRPtstdozS_-fgGi-55">
          <mxGeometry x="195" y="110" width="50" height="30" as="geometry" />
        </mxCell>
        <mxCell id="7SpoKRPtstdozS_-fgGi-68" style="edgeStyle=orthogonalEdgeStyle;rounded=0;orthogonalLoop=1;jettySize=auto;html=1;exitX=1;exitY=0.5;exitDx=0;exitDy=0;entryX=0;entryY=0.5;entryDx=0;entryDy=0;" edge="1" parent="7SpoKRPtstdozS_-fgGi-55" source="7SpoKRPtstdozS_-fgGi-66" target="7SpoKRPtstdozS_-fgGi-67">
          <mxGeometry relative="1" as="geometry" />
        </mxCell>
        <mxCell id="7SpoKRPtstdozS_-fgGi-66" value="Maximize Tab" style="rounded=1;whiteSpace=wrap;html=1;shadow=0;labelBackgroundColor=none;strokeWidth=1;fontFamily=Verdana;fontSize=8;align=center;fillColor=#fff2cc;strokeColor=#d6b656;fontStyle=1" vertex="1" parent="7SpoKRPtstdozS_-fgGi-55">
          <mxGeometry x="300" y="16.5" width="80" height="43.5" as="geometry" />
        </mxCell>
        <mxCell id="7SpoKRPtstdozS_-fgGi-70" style="edgeStyle=orthogonalEdgeStyle;rounded=0;orthogonalLoop=1;jettySize=auto;html=1;exitX=1;exitY=0.5;exitDx=0;exitDy=0;entryX=0;entryY=0.5;entryDx=0;entryDy=0;" edge="1" parent="7SpoKRPtstdozS_-fgGi-55" source="7SpoKRPtstdozS_-fgGi-67" target="7SpoKRPtstdozS_-fgGi-69">
          <mxGeometry relative="1" as="geometry" />
        </mxCell>
        <mxCell id="7SpoKRPtstdozS_-fgGi-67" value="Put Extracted Data in Note Pad" style="rounded=1;whiteSpace=wrap;html=1;shadow=0;labelBackgroundColor=none;strokeWidth=1;fontFamily=Verdana;fontSize=8;align=center;fillColor=#fff2cc;strokeColor=#d6b656;fontStyle=1" vertex="1" parent="7SpoKRPtstdozS_-fgGi-55">
          <mxGeometry x="400" y="16.5" width="90" height="43.5" as="geometry" />
        </mxCell>
        <mxCell id="7SpoKRPtstdozS_-fgGi-69" value="Edit Font" style="ellipse;whiteSpace=wrap;html=1;rounded=0;shadow=0;labelBackgroundColor=none;strokeWidth=1;fontFamily=Verdana;fontSize=8;align=center;fillColor=#b1ddf0;strokeColor=#10739e;fontStyle=1;" vertex="1" parent="7SpoKRPtstdozS_-fgGi-55">
          <mxGeometry x="530" y="4.87" width="70" height="66.75" as="geometry" />
        </mxCell>
        <mxCell id="2b4e8129b02d487f-4" value="Edit Font" style="swimlane;html=1;startSize=20;horizontal=0;fillColor=#b1ddf0;strokeColor=#10739e;" parent="2b4e8129b02d487f-1" vertex="1">
          <mxGeometry y="850" width="1060" height="160" as="geometry" />
        </mxCell>
        <mxCell id="lynWyJ27UmlPL52xSpIG-43" style="edgeStyle=orthogonalEdgeStyle;rounded=0;orthogonalLoop=1;jettySize=auto;html=1;exitX=1;exitY=0.5;exitDx=0;exitDy=0;entryX=0;entryY=0.5;entryDx=0;entryDy=0;" parent="2b4e8129b02d487f-4" source="lynWyJ27UmlPL52xSpIG-41" target="lynWyJ27UmlPL52xSpIG-42" edge="1">
          <mxGeometry relative="1" as="geometry" />
        </mxCell>
        <mxCell id="lynWyJ27UmlPL52xSpIG-41" value="Initialize Note Pad" style="ellipse;whiteSpace=wrap;html=1;rounded=0;shadow=0;labelBackgroundColor=none;strokeWidth=1;fontFamily=Verdana;fontSize=8;align=center;fillColor=#fff2cc;strokeColor=#d6b656;fontStyle=1" parent="2b4e8129b02d487f-4" vertex="1">
          <mxGeometry x="30" y="50" width="60" height="60" as="geometry" />
        </mxCell>
        <mxCell id="7SpoKRPtstdozS_-fgGi-77" style="edgeStyle=orthogonalEdgeStyle;rounded=0;orthogonalLoop=1;jettySize=auto;html=1;exitX=1;exitY=0.5;exitDx=0;exitDy=0;entryX=0;entryY=0.5;entryDx=0;entryDy=0;" edge="1" parent="2b4e8129b02d487f-4" source="lynWyJ27UmlPL52xSpIG-42" target="7SpoKRPtstdozS_-fgGi-74">
          <mxGeometry relative="1" as="geometry" />
        </mxCell>
        <mxCell id="lynWyJ27UmlPL52xSpIG-42" value="Choose edit from menu then choose font" style="rounded=1;whiteSpace=wrap;html=1;shadow=0;labelBackgroundColor=none;strokeWidth=1;fontFamily=Verdana;fontSize=8;align=center;fillColor=#b1ddf0;strokeColor=#10739e;fontStyle=1" parent="2b4e8129b02d487f-4" vertex="1">
          <mxGeometry x="120" y="50" width="110" height="58.5" as="geometry" />
        </mxCell>
        <mxCell id="7SpoKRPtstdozS_-fgGi-78" style="edgeStyle=orthogonalEdgeStyle;rounded=0;orthogonalLoop=1;jettySize=auto;html=1;exitX=1;exitY=0.5;exitDx=0;exitDy=0;entryX=0;entryY=0.5;entryDx=0;entryDy=0;" edge="1" parent="2b4e8129b02d487f-4" source="7SpoKRPtstdozS_-fgGi-74" target="7SpoKRPtstdozS_-fgGi-75">
          <mxGeometry relative="1" as="geometry" />
        </mxCell>
        <mxCell id="7SpoKRPtstdozS_-fgGi-74" value="Select &quot;Arial&quot; in font family" style="rounded=1;whiteSpace=wrap;html=1;shadow=0;labelBackgroundColor=none;strokeWidth=1;fontFamily=Verdana;fontSize=8;align=center;fillColor=#b1ddf0;strokeColor=#10739e;fontStyle=1" vertex="1" parent="2b4e8129b02d487f-4">
          <mxGeometry x="260" y="51.5" width="110" height="58.5" as="geometry" />
        </mxCell>
        <mxCell id="7SpoKRPtstdozS_-fgGi-79" style="edgeStyle=orthogonalEdgeStyle;rounded=0;orthogonalLoop=1;jettySize=auto;html=1;exitX=1;exitY=0.5;exitDx=0;exitDy=0;entryX=0;entryY=0.5;entryDx=0;entryDy=0;" edge="1" parent="2b4e8129b02d487f-4" source="7SpoKRPtstdozS_-fgGi-75" target="7SpoKRPtstdozS_-fgGi-76">
          <mxGeometry relative="1" as="geometry" />
        </mxCell>
        <mxCell id="7SpoKRPtstdozS_-fgGi-75" value="Select &quot;Bold&quot; in font Style" style="rounded=1;whiteSpace=wrap;html=1;shadow=0;labelBackgroundColor=none;strokeWidth=1;fontFamily=Verdana;fontSize=8;align=center;fillColor=#b1ddf0;strokeColor=#10739e;fontStyle=1" vertex="1" parent="2b4e8129b02d487f-4">
          <mxGeometry x="390" y="50" width="110" height="58.5" as="geometry" />
        </mxCell>
        <mxCell id="7SpoKRPtstdozS_-fgGi-81" style="edgeStyle=orthogonalEdgeStyle;rounded=0;orthogonalLoop=1;jettySize=auto;html=1;exitX=1;exitY=0.5;exitDx=0;exitDy=0;entryX=0;entryY=0.5;entryDx=0;entryDy=0;" edge="1" parent="2b4e8129b02d487f-4" source="7SpoKRPtstdozS_-fgGi-76" target="7SpoKRPtstdozS_-fgGi-80">
          <mxGeometry relative="1" as="geometry" />
        </mxCell>
        <mxCell id="7SpoKRPtstdozS_-fgGi-76" value="Select &quot;28&quot; in font&amp;nbsp;&lt;div&gt;Size&lt;/div&gt;" style="rounded=1;whiteSpace=wrap;html=1;shadow=0;labelBackgroundColor=none;strokeWidth=1;fontFamily=Verdana;fontSize=8;align=center;fillColor=#b1ddf0;strokeColor=#10739e;fontStyle=1" vertex="1" parent="2b4e8129b02d487f-4">
          <mxGeometry x="520" y="50.75" width="110" height="58.5" as="geometry" />
        </mxCell>
        <mxCell id="7SpoKRPtstdozS_-fgGi-89" style="edgeStyle=orthogonalEdgeStyle;rounded=0;orthogonalLoop=1;jettySize=auto;html=1;exitX=1;exitY=0.5;exitDx=0;exitDy=0;entryX=0;entryY=0.5;entryDx=0;entryDy=0;" edge="1" parent="2b4e8129b02d487f-4" source="7SpoKRPtstdozS_-fgGi-80" target="7SpoKRPtstdozS_-fgGi-88">
          <mxGeometry relative="1" as="geometry" />
        </mxCell>
        <mxCell id="7SpoKRPtstdozS_-fgGi-80" value="Press back button" style="rounded=1;whiteSpace=wrap;html=1;shadow=0;labelBackgroundColor=none;strokeWidth=1;fontFamily=Verdana;fontSize=8;align=center;fillColor=#b1ddf0;strokeColor=#10739e;fontStyle=1" vertex="1" parent="2b4e8129b02d487f-4">
          <mxGeometry x="650" y="50.75" width="110" height="58.5" as="geometry" />
        </mxCell>
        <mxCell id="7SpoKRPtstdozS_-fgGi-82" value="Save txt File" style="ellipse;whiteSpace=wrap;html=1;rounded=0;shadow=0;labelBackgroundColor=none;strokeWidth=1;fontFamily=Verdana;fontSize=8;align=center;fillColor=#b0e3e6;strokeColor=#0e8088;fontStyle=1" vertex="1" parent="2b4e8129b02d487f-4">
          <mxGeometry x="970" y="45" width="80" height="70" as="geometry" />
        </mxCell>
        <mxCell id="7SpoKRPtstdozS_-fgGi-91" value="No" style="edgeStyle=orthogonalEdgeStyle;rounded=0;orthogonalLoop=1;jettySize=auto;html=1;exitX=0.5;exitY=1;exitDx=0;exitDy=0;entryX=0.5;entryY=0;entryDx=0;entryDy=0;fontStyle=1" edge="1" parent="2b4e8129b02d487f-4" source="7SpoKRPtstdozS_-fgGi-88" target="7SpoKRPtstdozS_-fgGi-90">
          <mxGeometry relative="1" as="geometry" />
        </mxCell>
        <mxCell id="7SpoKRPtstdozS_-fgGi-92" value="Yes" style="edgeStyle=orthogonalEdgeStyle;rounded=0;orthogonalLoop=1;jettySize=auto;html=1;exitX=1;exitY=0.5;exitDx=0;exitDy=0;entryX=0;entryY=0.5;entryDx=0;entryDy=0;fontStyle=1" edge="1" parent="2b4e8129b02d487f-4" source="7SpoKRPtstdozS_-fgGi-88" target="7SpoKRPtstdozS_-fgGi-82">
          <mxGeometry relative="1" as="geometry" />
        </mxCell>
        <mxCell id="7SpoKRPtstdozS_-fgGi-88" value="Check font applied ?" style="rhombus;whiteSpace=wrap;html=1;fillColor=#e1d5e7;strokeColor=#9673a6;fontSize=7;fontStyle=1" vertex="1" parent="2b4e8129b02d487f-4">
          <mxGeometry x="800" y="20" width="60" height="60" as="geometry" />
        </mxCell>
        <mxCell id="7SpoKRPtstdozS_-fgGi-90" value="BE04" style="ellipse;whiteSpace=wrap;html=1;fontStyle=1;fillColor=#e51400;fontColor=#ffffff;strokeColor=#B20000;" vertex="1" parent="2b4e8129b02d487f-4">
          <mxGeometry x="805" y="115" width="50" height="30" as="geometry" />
        </mxCell>
        <mxCell id="7SpoKRPtstdozS_-fgGi-83" value="Save txt file" style="swimlane;html=1;startSize=20;horizontal=0;fillColor=#b0e3e6;strokeColor=#0e8088;" vertex="1" parent="2b4e8129b02d487f-1">
          <mxGeometry y="1010" width="1060" height="170" as="geometry" />
        </mxCell>
        <mxCell id="7SpoKRPtstdozS_-fgGi-84" style="edgeStyle=orthogonalEdgeStyle;rounded=0;orthogonalLoop=1;jettySize=auto;html=1;exitX=1;exitY=0.5;exitDx=0;exitDy=0;entryX=0;entryY=0.5;entryDx=0;entryDy=0;" edge="1" parent="7SpoKRPtstdozS_-fgGi-83" source="7SpoKRPtstdozS_-fgGi-85" target="7SpoKRPtstdozS_-fgGi-86">
          <mxGeometry relative="1" as="geometry" />
        </mxCell>
        <mxCell id="7SpoKRPtstdozS_-fgGi-85" value="Edit font" style="ellipse;whiteSpace=wrap;html=1;rounded=0;shadow=0;labelBackgroundColor=none;strokeWidth=1;fontFamily=Verdana;fontSize=8;align=center;fillColor=#b1ddf0;strokeColor=#10739e;fontStyle=1;" vertex="1" parent="7SpoKRPtstdozS_-fgGi-83">
          <mxGeometry x="40" y="30" width="60" height="60" as="geometry" />
        </mxCell>
        <mxCell id="7SpoKRPtstdozS_-fgGi-95" style="edgeStyle=orthogonalEdgeStyle;rounded=0;orthogonalLoop=1;jettySize=auto;html=1;exitX=1;exitY=0.5;exitDx=0;exitDy=0;entryX=0;entryY=0.5;entryDx=0;entryDy=0;" edge="1" parent="7SpoKRPtstdozS_-fgGi-83" source="7SpoKRPtstdozS_-fgGi-86" target="7SpoKRPtstdozS_-fgGi-93">
          <mxGeometry relative="1" as="geometry" />
        </mxCell>
        <mxCell id="7SpoKRPtstdozS_-fgGi-86" value="Choose save from file menu" style="rounded=1;whiteSpace=wrap;html=1;shadow=0;labelBackgroundColor=none;strokeWidth=1;fontFamily=Verdana;fontSize=8;align=center;fillColor=#b0e3e6;strokeColor=#0e8088;fontStyle=1" vertex="1" parent="7SpoKRPtstdozS_-fgGi-83">
          <mxGeometry x="150" y="35.75" width="100" height="48.5" as="geometry" />
        </mxCell>
        <mxCell id="7SpoKRPtstdozS_-fgGi-96" style="edgeStyle=orthogonalEdgeStyle;rounded=0;orthogonalLoop=1;jettySize=auto;html=1;exitX=1;exitY=0.5;exitDx=0;exitDy=0;entryX=0;entryY=0.5;entryDx=0;entryDy=0;" edge="1" parent="7SpoKRPtstdozS_-fgGi-83" source="7SpoKRPtstdozS_-fgGi-93" target="7SpoKRPtstdozS_-fgGi-94">
          <mxGeometry relative="1" as="geometry" />
        </mxCell>
        <mxCell id="7SpoKRPtstdozS_-fgGi-93" value="Put the new file name in test area" style="rounded=1;whiteSpace=wrap;html=1;shadow=0;labelBackgroundColor=none;strokeWidth=1;fontFamily=Verdana;fontSize=8;align=center;fillColor=#b0e3e6;strokeColor=#0e8088;fontStyle=1" vertex="1" parent="7SpoKRPtstdozS_-fgGi-83">
          <mxGeometry x="270" y="35.75" width="100" height="48.5" as="geometry" />
        </mxCell>
        <mxCell id="7SpoKRPtstdozS_-fgGi-113" style="edgeStyle=orthogonalEdgeStyle;rounded=0;orthogonalLoop=1;jettySize=auto;html=1;exitX=1;exitY=0.5;exitDx=0;exitDy=0;entryX=0;entryY=0.5;entryDx=0;entryDy=0;" edge="1" parent="7SpoKRPtstdozS_-fgGi-83" source="7SpoKRPtstdozS_-fgGi-94" target="7SpoKRPtstdozS_-fgGi-112">
          <mxGeometry relative="1" as="geometry" />
        </mxCell>
        <mxCell id="7SpoKRPtstdozS_-fgGi-94" value="Click Save&amp;nbsp;" style="rounded=1;whiteSpace=wrap;html=1;shadow=0;labelBackgroundColor=none;strokeWidth=1;fontFamily=Verdana;fontSize=8;align=center;fillColor=#b0e3e6;strokeColor=#0e8088;fontStyle=1" vertex="1" parent="7SpoKRPtstdozS_-fgGi-83">
          <mxGeometry x="390" y="35.75" width="100" height="48.5" as="geometry" />
        </mxCell>
        <mxCell id="7SpoKRPtstdozS_-fgGi-98" value="End Process" style="ellipse;whiteSpace=wrap;html=1;rounded=0;shadow=0;labelBackgroundColor=none;strokeWidth=1;fontFamily=Verdana;fontSize=8;align=center;fillColor=#fad9d5;strokeColor=#ae4132;fontStyle=1;" vertex="1" parent="7SpoKRPtstdozS_-fgGi-83">
          <mxGeometry x="740" y="30" width="60" height="60" as="geometry" />
        </mxCell>
        <mxCell id="7SpoKRPtstdozS_-fgGi-115" value="No" style="edgeStyle=orthogonalEdgeStyle;rounded=0;orthogonalLoop=1;jettySize=auto;html=1;exitX=0.5;exitY=1;exitDx=0;exitDy=0;entryX=0.5;entryY=0;entryDx=0;entryDy=0;" edge="1" parent="7SpoKRPtstdozS_-fgGi-83" source="7SpoKRPtstdozS_-fgGi-112" target="7SpoKRPtstdozS_-fgGi-114">
          <mxGeometry relative="1" as="geometry" />
        </mxCell>
        <mxCell id="7SpoKRPtstdozS_-fgGi-117" value="Yes" style="edgeStyle=orthogonalEdgeStyle;rounded=0;orthogonalLoop=1;jettySize=auto;html=1;exitX=1;exitY=0.5;exitDx=0;exitDy=0;" edge="1" parent="7SpoKRPtstdozS_-fgGi-83" source="7SpoKRPtstdozS_-fgGi-112" target="7SpoKRPtstdozS_-fgGi-98">
          <mxGeometry relative="1" as="geometry" />
        </mxCell>
        <mxCell id="7SpoKRPtstdozS_-fgGi-112" value="IS there file with same name ?&amp;nbsp;" style="rhombus;whiteSpace=wrap;html=1;fillColor=#e1d5e7;strokeColor=#9673a6;fontSize=7;fontStyle=1" vertex="1" parent="7SpoKRPtstdozS_-fgGi-83">
          <mxGeometry x="530" y="20" width="60" height="60" as="geometry" />
        </mxCell>
        <mxCell id="7SpoKRPtstdozS_-fgGi-114" value="BE05" style="ellipse;whiteSpace=wrap;html=1;fontStyle=1;fillColor=#e51400;fontColor=#ffffff;strokeColor=#B20000;" vertex="1" parent="7SpoKRPtstdozS_-fgGi-83">
          <mxGeometry x="535" y="120" width="50" height="30" as="geometry" />
        </mxCell>
        <mxCell id="m5smUrmSbZEZKF3f6fhh-278" value="End Process" style="swimlane;html=1;startSize=20;horizontal=0;fillColor=#f8cecc;strokeColor=#b85450;" parent="2b4e8129b02d487f-1" vertex="1">
          <mxGeometry y="1180" width="1060" height="110" as="geometry" />
        </mxCell>
        <mxCell id="m5smUrmSbZEZKF3f6fhh-279" style="edgeStyle=orthogonalEdgeStyle;rounded=0;orthogonalLoop=1;jettySize=auto;html=1;exitX=1;exitY=0.5;exitDx=0;exitDy=0;entryX=0;entryY=0.5;entryDx=0;entryDy=0;" parent="m5smUrmSbZEZKF3f6fhh-278" source="m5smUrmSbZEZKF3f6fhh-280" target="m5smUrmSbZEZKF3f6fhh-281" edge="1">
          <mxGeometry relative="1" as="geometry" />
        </mxCell>
        <mxCell id="m5smUrmSbZEZKF3f6fhh-280" value="Save txt&lt;div&gt;&amp;nbsp;file&lt;/div&gt;" style="ellipse;whiteSpace=wrap;html=1;rounded=0;shadow=0;labelBackgroundColor=none;strokeWidth=1;fontFamily=Verdana;fontSize=8;align=center;fillColor=#f5f5f5;strokeColor=#666666;fontStyle=1;fontColor=#333333;" parent="m5smUrmSbZEZKF3f6fhh-278" vertex="1">
          <mxGeometry x="40" y="30" width="60" height="60" as="geometry" />
        </mxCell>
        <mxCell id="m5smUrmSbZEZKF3f6fhh-281" value="Close note pad tab opened" style="rounded=1;whiteSpace=wrap;html=1;shadow=0;labelBackgroundColor=none;strokeWidth=1;fontFamily=Verdana;fontSize=8;align=center;fillColor=#f8cecc;strokeColor=#b85450;fontStyle=1" parent="m5smUrmSbZEZKF3f6fhh-278" vertex="1">
          <mxGeometry x="150" y="31.5" width="175" height="58.5" as="geometry" />
        </mxCell>
        <mxCell id="m5smUrmSbZEZKF3f6fhh-13" value="" style="rounded=0;whiteSpace=wrap;html=1;" parent="1" vertex="1">
          <mxGeometry x="180" y="-20" width="860" height="80" as="geometry" />
        </mxCell>
        <mxCell id="m5smUrmSbZEZKF3f6fhh-14" value="Color Map" style="rounded=0;whiteSpace=wrap;html=1;fontStyle=1" parent="1" vertex="1">
          <mxGeometry x="180" y="-50" width="120" height="30" as="geometry" />
        </mxCell>
        <mxCell id="m5smUrmSbZEZKF3f6fhh-15" value="Edge Browser" style="rounded=1;whiteSpace=wrap;html=1;fillColor=#dae8fc;strokeColor=#6c8ebf;fontStyle=1" parent="1" vertex="1">
          <mxGeometry x="190" y="7" width="100" height="35" as="geometry" />
        </mxCell>
        <mxCell id="m5smUrmSbZEZKF3f6fhh-16" value="Edge Browser" style="rounded=1;whiteSpace=wrap;html=1;fillColor=#d5e8d4;strokeColor=#82b366;fontStyle=1" parent="1" vertex="1">
          <mxGeometry x="300" y="7" width="90" height="35" as="geometry" />
        </mxCell>
        <mxCell id="m5smUrmSbZEZKF3f6fhh-17" value="Edge Browser" style="rounded=1;whiteSpace=wrap;html=1;fillColor=#ffe6cc;strokeColor=#d79b00;fontStyle=1" parent="1" vertex="1">
          <mxGeometry x="400" y="7" width="90" height="35" as="geometry" />
        </mxCell>
        <mxCell id="m5smUrmSbZEZKF3f6fhh-18" value="Edge Browser" style="rounded=1;whiteSpace=wrap;html=1;fillColor=#f5f5f5;strokeColor=#666666;fontStyle=1;fontColor=#333333;" parent="1" vertex="1">
          <mxGeometry x="500" y="7" width="90" height="35" as="geometry" />
        </mxCell>
        <mxCell id="m5smUrmSbZEZKF3f6fhh-23" value="Note Pad" style="rounded=1;whiteSpace=wrap;html=1;fontStyle=1;fillColor=#fff2cc;strokeColor=#d6b656;" parent="1" vertex="1">
          <mxGeometry x="600" y="7" width="70" height="35" as="geometry" />
        </mxCell>
        <mxCell id="m5smUrmSbZEZKF3f6fhh-54" value="SE01" style="swimlane;html=1;startSize=20;horizontal=0;fillColor=#e51400;strokeColor=#B20000;fontColor=#ffffff;" parent="1" vertex="1">
          <mxGeometry x="-320" y="60" width="480" height="120" as="geometry" />
        </mxCell>
        <mxCell id="m5smUrmSbZEZKF3f6fhh-55" style="edgeStyle=orthogonalEdgeStyle;rounded=0;orthogonalLoop=1;jettySize=auto;html=1;exitX=1;exitY=0.5;exitDx=0;exitDy=0;entryX=0;entryY=0.5;entryDx=0;entryDy=0;" parent="m5smUrmSbZEZKF3f6fhh-54" source="m5smUrmSbZEZKF3f6fhh-56" target="m5smUrmSbZEZKF3f6fhh-58" edge="1">
          <mxGeometry relative="1" as="geometry">
            <mxPoint x="140" y="40" as="targetPoint" />
          </mxGeometry>
        </mxCell>
        <mxCell id="m5smUrmSbZEZKF3f6fhh-56" value="SE01" style="ellipse;whiteSpace=wrap;html=1;rounded=0;shadow=0;labelBackgroundColor=none;strokeWidth=1;fontFamily=Verdana;fontSize=8;align=center;fillColor=#e51400;strokeColor=#B20000;fontStyle=1;fontColor=#ffffff;" parent="m5smUrmSbZEZKF3f6fhh-54" vertex="1">
          <mxGeometry x="40" y="10" width="60" height="60" as="geometry" />
        </mxCell>
        <mxCell id="NPYk2-gNOx9nYLWtcwtR-21" style="edgeStyle=orthogonalEdgeStyle;rounded=0;orthogonalLoop=1;jettySize=auto;html=1;exitX=1;exitY=0.5;exitDx=0;exitDy=0;entryX=0;entryY=0.5;entryDx=0;entryDy=0;" parent="m5smUrmSbZEZKF3f6fhh-54" source="m5smUrmSbZEZKF3f6fhh-58" target="NPYk2-gNOx9nYLWtcwtR-20" edge="1">
          <mxGeometry relative="1" as="geometry" />
        </mxCell>
        <mxCell id="m5smUrmSbZEZKF3f6fhh-58" value="Try open" style="rounded=1;whiteSpace=wrap;html=1;shadow=0;labelBackgroundColor=none;strokeWidth=1;fontFamily=Verdana;fontSize=8;align=center;fillColor=#e51400;strokeColor=#B20000;fontStyle=1;fontColor=#ffffff;" parent="m5smUrmSbZEZKF3f6fhh-54" vertex="1">
          <mxGeometry x="140" y="15.75" width="90" height="48.5" as="geometry" />
        </mxCell>
        <mxCell id="m5smUrmSbZEZKF3f6fhh-59" value="End&amp;nbsp;&lt;div&gt;Process&lt;/div&gt;" style="ellipse;whiteSpace=wrap;html=1;rounded=0;shadow=0;labelBackgroundColor=none;strokeWidth=1;fontFamily=Verdana;fontSize=8;align=center;fillColor=#ffcccc;strokeColor=#36393d;fontStyle=1;" parent="m5smUrmSbZEZKF3f6fhh-54" vertex="1">
          <mxGeometry x="410" y="10" width="60" height="60" as="geometry" />
        </mxCell>
        <mxCell id="NPYk2-gNOx9nYLWtcwtR-22" style="edgeStyle=orthogonalEdgeStyle;rounded=0;orthogonalLoop=1;jettySize=auto;html=1;exitX=1;exitY=0.5;exitDx=0;exitDy=0;entryX=0;entryY=0.5;entryDx=0;entryDy=0;" parent="m5smUrmSbZEZKF3f6fhh-54" source="NPYk2-gNOx9nYLWtcwtR-20" target="m5smUrmSbZEZKF3f6fhh-59" edge="1">
          <mxGeometry relative="1" as="geometry" />
        </mxCell>
        <mxCell id="NPYk2-gNOx9nYLWtcwtR-20" value="Log message failed to open browser" style="rounded=1;whiteSpace=wrap;html=1;shadow=0;labelBackgroundColor=none;strokeWidth=1;fontFamily=Verdana;fontSize=8;align=center;fillColor=#e51400;strokeColor=#B20000;fontStyle=1;fontColor=#ffffff;" parent="m5smUrmSbZEZKF3f6fhh-54" vertex="1">
          <mxGeometry x="260" y="15.75" width="90" height="48.5" as="geometry" />
        </mxCell>
        <mxCell id="CSiGIN4jMo8cBrUreZCy-1" value="BE01" style="swimlane;html=1;startSize=20;horizontal=0;fillColor=#e51400;strokeColor=#B20000;fontColor=#ffffff;" parent="1" vertex="1">
          <mxGeometry x="-320" y="180" width="480" height="120" as="geometry" />
        </mxCell>
        <mxCell id="CSiGIN4jMo8cBrUreZCy-2" style="edgeStyle=orthogonalEdgeStyle;rounded=0;orthogonalLoop=1;jettySize=auto;html=1;exitX=1;exitY=0.5;exitDx=0;exitDy=0;entryX=0;entryY=0.5;entryDx=0;entryDy=0;" parent="CSiGIN4jMo8cBrUreZCy-1" source="CSiGIN4jMo8cBrUreZCy-3" target="CSiGIN4jMo8cBrUreZCy-5" edge="1">
          <mxGeometry relative="1" as="geometry">
            <mxPoint x="140" y="40" as="targetPoint" />
          </mxGeometry>
        </mxCell>
        <mxCell id="CSiGIN4jMo8cBrUreZCy-3" value="BE01" style="ellipse;whiteSpace=wrap;html=1;rounded=0;shadow=0;labelBackgroundColor=none;strokeWidth=1;fontFamily=Verdana;fontSize=8;align=center;fillColor=#e51400;strokeColor=#B20000;fontStyle=1;fontColor=#ffffff;" parent="CSiGIN4jMo8cBrUreZCy-1" vertex="1">
          <mxGeometry x="40" y="10" width="60" height="60" as="geometry" />
        </mxCell>
        <mxCell id="CSiGIN4jMo8cBrUreZCy-5" value="Log message check country name" style="rounded=1;whiteSpace=wrap;html=1;shadow=0;labelBackgroundColor=none;strokeWidth=1;fontFamily=Verdana;fontSize=8;align=center;fillColor=#e51400;strokeColor=#B20000;fontStyle=1;fontColor=#ffffff;" parent="CSiGIN4jMo8cBrUreZCy-1" vertex="1">
          <mxGeometry x="195" y="15.75" width="90" height="48.5" as="geometry" />
        </mxCell>
        <mxCell id="CSiGIN4jMo8cBrUreZCy-6" value="Take Input from user" style="ellipse;whiteSpace=wrap;html=1;rounded=0;shadow=0;labelBackgroundColor=none;strokeWidth=1;fontFamily=Verdana;fontSize=8;align=center;fillColor=#d5e8d4;strokeColor=#82b366;fontStyle=1;" parent="CSiGIN4jMo8cBrUreZCy-1" vertex="1">
          <mxGeometry x="410" y="10" width="60" height="60" as="geometry" />
        </mxCell>
        <mxCell id="CSiGIN4jMo8cBrUreZCy-7" style="edgeStyle=orthogonalEdgeStyle;rounded=0;orthogonalLoop=1;jettySize=auto;html=1;exitX=1;exitY=0.5;exitDx=0;exitDy=0;entryX=0;entryY=0.5;entryDx=0;entryDy=0;" parent="CSiGIN4jMo8cBrUreZCy-1" source="CSiGIN4jMo8cBrUreZCy-5" target="CSiGIN4jMo8cBrUreZCy-6" edge="1">
          <mxGeometry relative="1" as="geometry">
            <mxPoint x="350" y="40" as="sourcePoint" />
          </mxGeometry>
        </mxCell>
        <mxCell id="CSiGIN4jMo8cBrUreZCy-23" value="BE02" style="swimlane;html=1;startSize=20;horizontal=0;fillColor=#e51400;strokeColor=#B20000;fontColor=#ffffff;" parent="1" vertex="1">
          <mxGeometry x="-320" y="300" width="480" height="120" as="geometry" />
        </mxCell>
        <mxCell id="CSiGIN4jMo8cBrUreZCy-24" style="edgeStyle=orthogonalEdgeStyle;rounded=0;orthogonalLoop=1;jettySize=auto;html=1;exitX=1;exitY=0.5;exitDx=0;exitDy=0;entryX=0;entryY=0.5;entryDx=0;entryDy=0;" parent="CSiGIN4jMo8cBrUreZCy-23" source="CSiGIN4jMo8cBrUreZCy-25" target="CSiGIN4jMo8cBrUreZCy-26" edge="1">
          <mxGeometry relative="1" as="geometry">
            <mxPoint x="140" y="40" as="targetPoint" />
          </mxGeometry>
        </mxCell>
        <mxCell id="CSiGIN4jMo8cBrUreZCy-25" value="BE02" style="ellipse;whiteSpace=wrap;html=1;rounded=0;shadow=0;labelBackgroundColor=none;strokeWidth=1;fontFamily=Verdana;fontSize=8;align=center;fillColor=#e51400;strokeColor=#B20000;fontStyle=1;fontColor=#ffffff;" parent="CSiGIN4jMo8cBrUreZCy-23" vertex="1">
          <mxGeometry x="40" y="10" width="60" height="60" as="geometry" />
        </mxCell>
        <mxCell id="CSiGIN4jMo8cBrUreZCy-26" value="Try next appearing links till end of page" style="rounded=1;whiteSpace=wrap;html=1;shadow=0;labelBackgroundColor=none;strokeWidth=1;fontFamily=Verdana;fontSize=8;align=center;fillColor=#e51400;strokeColor=#B20000;fontStyle=1;fontColor=#ffffff;" parent="CSiGIN4jMo8cBrUreZCy-23" vertex="1">
          <mxGeometry x="195" y="15.75" width="90" height="48.5" as="geometry" />
        </mxCell>
        <mxCell id="CSiGIN4jMo8cBrUreZCy-27" value="End Process" style="ellipse;whiteSpace=wrap;html=1;rounded=0;shadow=0;labelBackgroundColor=none;strokeWidth=1;fontFamily=Verdana;fontSize=8;align=center;fillColor=#fad9d5;strokeColor=#ae4132;fontStyle=1;" parent="CSiGIN4jMo8cBrUreZCy-23" vertex="1">
          <mxGeometry x="410" y="10" width="60" height="60" as="geometry" />
        </mxCell>
        <mxCell id="CSiGIN4jMo8cBrUreZCy-28" style="edgeStyle=orthogonalEdgeStyle;rounded=0;orthogonalLoop=1;jettySize=auto;html=1;exitX=1;exitY=0.5;exitDx=0;exitDy=0;entryX=0;entryY=0.5;entryDx=0;entryDy=0;" parent="CSiGIN4jMo8cBrUreZCy-23" source="CSiGIN4jMo8cBrUreZCy-26" target="CSiGIN4jMo8cBrUreZCy-27" edge="1">
          <mxGeometry relative="1" as="geometry">
            <mxPoint x="350" y="40" as="sourcePoint" />
          </mxGeometry>
        </mxCell>
        <mxCell id="7SpoKRPtstdozS_-fgGi-71" value="Note Pad" style="rounded=1;whiteSpace=wrap;html=1;fontStyle=1;fillColor=#b1ddf0;strokeColor=#10739e;" vertex="1" parent="1">
          <mxGeometry x="680" y="7" width="70" height="35" as="geometry" />
        </mxCell>
        <mxCell id="7SpoKRPtstdozS_-fgGi-72" value="Note Pad" style="rounded=1;whiteSpace=wrap;html=1;fontStyle=1;fillColor=#b0e3e6;strokeColor=#0e8088;" vertex="1" parent="1">
          <mxGeometry x="760" y="7" width="70" height="35" as="geometry" />
        </mxCell>
        <mxCell id="7SpoKRPtstdozS_-fgGi-73" value="End Process" style="rounded=1;whiteSpace=wrap;html=1;fontStyle=1;fillColor=#fad9d5;strokeColor=#ae4132;" vertex="1" parent="1">
          <mxGeometry x="840" y="7" width="80" height="35" as="geometry" />
        </mxCell>
        <mxCell id="7SpoKRPtstdozS_-fgGi-100" value="BE03" style="swimlane;html=1;startSize=20;horizontal=0;fillColor=#e51400;strokeColor=#B20000;fontColor=#ffffff;" vertex="1" parent="1">
          <mxGeometry x="-320" y="420" width="480" height="120" as="geometry" />
        </mxCell>
        <mxCell id="7SpoKRPtstdozS_-fgGi-101" style="edgeStyle=orthogonalEdgeStyle;rounded=0;orthogonalLoop=1;jettySize=auto;html=1;exitX=1;exitY=0.5;exitDx=0;exitDy=0;entryX=0;entryY=0.5;entryDx=0;entryDy=0;" edge="1" parent="7SpoKRPtstdozS_-fgGi-100" source="7SpoKRPtstdozS_-fgGi-102" target="7SpoKRPtstdozS_-fgGi-103">
          <mxGeometry relative="1" as="geometry">
            <mxPoint x="140" y="40" as="targetPoint" />
          </mxGeometry>
        </mxCell>
        <mxCell id="7SpoKRPtstdozS_-fgGi-102" value="BE03" style="ellipse;whiteSpace=wrap;html=1;rounded=0;shadow=0;labelBackgroundColor=none;strokeWidth=1;fontFamily=Verdana;fontSize=8;align=center;fillColor=#e51400;strokeColor=#B20000;fontStyle=1;fontColor=#ffffff;" vertex="1" parent="7SpoKRPtstdozS_-fgGi-100">
          <mxGeometry x="40" y="10" width="60" height="60" as="geometry" />
        </mxCell>
        <mxCell id="7SpoKRPtstdozS_-fgGi-103" value="Refresh page 3 times and log message &quot;data corrupted&quot;" style="rounded=1;whiteSpace=wrap;html=1;shadow=0;labelBackgroundColor=none;strokeWidth=1;fontFamily=Verdana;fontSize=8;align=center;fillColor=#e51400;strokeColor=#B20000;fontStyle=1;fontColor=#ffffff;" vertex="1" parent="7SpoKRPtstdozS_-fgGi-100">
          <mxGeometry x="195" y="15.75" width="90" height="48.5" as="geometry" />
        </mxCell>
        <mxCell id="7SpoKRPtstdozS_-fgGi-104" value="End Process" style="ellipse;whiteSpace=wrap;html=1;rounded=0;shadow=0;labelBackgroundColor=none;strokeWidth=1;fontFamily=Verdana;fontSize=8;align=center;fillColor=#fad9d5;strokeColor=#ae4132;fontStyle=1;" vertex="1" parent="7SpoKRPtstdozS_-fgGi-100">
          <mxGeometry x="410" y="10" width="60" height="60" as="geometry" />
        </mxCell>
        <mxCell id="7SpoKRPtstdozS_-fgGi-105" style="edgeStyle=orthogonalEdgeStyle;rounded=0;orthogonalLoop=1;jettySize=auto;html=1;exitX=1;exitY=0.5;exitDx=0;exitDy=0;entryX=0;entryY=0.5;entryDx=0;entryDy=0;" edge="1" parent="7SpoKRPtstdozS_-fgGi-100" source="7SpoKRPtstdozS_-fgGi-103" target="7SpoKRPtstdozS_-fgGi-104">
          <mxGeometry relative="1" as="geometry">
            <mxPoint x="350" y="40" as="sourcePoint" />
          </mxGeometry>
        </mxCell>
        <mxCell id="7SpoKRPtstdozS_-fgGi-106" value="BE04" style="swimlane;html=1;startSize=20;horizontal=0;fillColor=#e51400;strokeColor=#B20000;fontColor=#ffffff;" vertex="1" parent="1">
          <mxGeometry x="-320" y="540" width="480" height="120" as="geometry" />
        </mxCell>
        <mxCell id="7SpoKRPtstdozS_-fgGi-107" style="edgeStyle=orthogonalEdgeStyle;rounded=0;orthogonalLoop=1;jettySize=auto;html=1;exitX=1;exitY=0.5;exitDx=0;exitDy=0;entryX=0;entryY=0.5;entryDx=0;entryDy=0;" edge="1" parent="7SpoKRPtstdozS_-fgGi-106" source="7SpoKRPtstdozS_-fgGi-108" target="7SpoKRPtstdozS_-fgGi-109">
          <mxGeometry relative="1" as="geometry">
            <mxPoint x="140" y="40" as="targetPoint" />
          </mxGeometry>
        </mxCell>
        <mxCell id="7SpoKRPtstdozS_-fgGi-108" value="BE04" style="ellipse;whiteSpace=wrap;html=1;rounded=0;shadow=0;labelBackgroundColor=none;strokeWidth=1;fontFamily=Verdana;fontSize=8;align=center;fillColor=#e51400;strokeColor=#B20000;fontStyle=1;fontColor=#ffffff;" vertex="1" parent="7SpoKRPtstdozS_-fgGi-106">
          <mxGeometry x="40" y="10" width="60" height="60" as="geometry" />
        </mxCell>
        <mxCell id="7SpoKRPtstdozS_-fgGi-109" value="Select all text then apply again" style="rounded=1;whiteSpace=wrap;html=1;shadow=0;labelBackgroundColor=none;strokeWidth=1;fontFamily=Verdana;fontSize=8;align=center;fillColor=#e51400;strokeColor=#B20000;fontStyle=1;fontColor=#ffffff;" vertex="1" parent="7SpoKRPtstdozS_-fgGi-106">
          <mxGeometry x="195" y="15.75" width="90" height="48.5" as="geometry" />
        </mxCell>
        <mxCell id="7SpoKRPtstdozS_-fgGi-110" value="Save txt&amp;nbsp;&lt;div&gt;file&lt;/div&gt;" style="ellipse;whiteSpace=wrap;html=1;rounded=0;shadow=0;labelBackgroundColor=none;strokeWidth=1;fontFamily=Verdana;fontSize=8;align=center;fillColor=#b0e3e6;strokeColor=#0e8088;fontStyle=1;" vertex="1" parent="7SpoKRPtstdozS_-fgGi-106">
          <mxGeometry x="410" y="10" width="60" height="60" as="geometry" />
        </mxCell>
        <mxCell id="7SpoKRPtstdozS_-fgGi-111" style="edgeStyle=orthogonalEdgeStyle;rounded=0;orthogonalLoop=1;jettySize=auto;html=1;exitX=1;exitY=0.5;exitDx=0;exitDy=0;entryX=0;entryY=0.5;entryDx=0;entryDy=0;" edge="1" parent="7SpoKRPtstdozS_-fgGi-106" source="7SpoKRPtstdozS_-fgGi-109" target="7SpoKRPtstdozS_-fgGi-110">
          <mxGeometry relative="1" as="geometry">
            <mxPoint x="350" y="40" as="sourcePoint" />
          </mxGeometry>
        </mxCell>
        <mxCell id="7SpoKRPtstdozS_-fgGi-118" value="BE05" style="swimlane;html=1;startSize=20;horizontal=0;fillColor=#e51400;strokeColor=#B20000;fontColor=#ffffff;" vertex="1" parent="1">
          <mxGeometry x="-320" y="660" width="480" height="120" as="geometry" />
        </mxCell>
        <mxCell id="7SpoKRPtstdozS_-fgGi-119" style="edgeStyle=orthogonalEdgeStyle;rounded=0;orthogonalLoop=1;jettySize=auto;html=1;exitX=1;exitY=0.5;exitDx=0;exitDy=0;entryX=0;entryY=0.5;entryDx=0;entryDy=0;" edge="1" parent="7SpoKRPtstdozS_-fgGi-118" source="7SpoKRPtstdozS_-fgGi-120" target="7SpoKRPtstdozS_-fgGi-121">
          <mxGeometry relative="1" as="geometry">
            <mxPoint x="140" y="40" as="targetPoint" />
          </mxGeometry>
        </mxCell>
        <mxCell id="7SpoKRPtstdozS_-fgGi-120" value="BE05" style="ellipse;whiteSpace=wrap;html=1;rounded=0;shadow=0;labelBackgroundColor=none;strokeWidth=1;fontFamily=Verdana;fontSize=8;align=center;fillColor=#e51400;strokeColor=#B20000;fontStyle=1;fontColor=#ffffff;" vertex="1" parent="7SpoKRPtstdozS_-fgGi-118">
          <mxGeometry x="40" y="10" width="60" height="60" as="geometry" />
        </mxCell>
        <mxCell id="7SpoKRPtstdozS_-fgGi-121" value="Choose to override the existing file" style="rounded=1;whiteSpace=wrap;html=1;shadow=0;labelBackgroundColor=none;strokeWidth=1;fontFamily=Verdana;fontSize=8;align=center;fillColor=#e51400;strokeColor=#B20000;fontStyle=1;fontColor=#ffffff;" vertex="1" parent="7SpoKRPtstdozS_-fgGi-118">
          <mxGeometry x="195" y="15.75" width="90" height="48.5" as="geometry" />
        </mxCell>
        <mxCell id="7SpoKRPtstdozS_-fgGi-122" value="Continue Save txt file" style="ellipse;whiteSpace=wrap;html=1;rounded=0;shadow=0;labelBackgroundColor=none;strokeWidth=1;fontFamily=Verdana;fontSize=8;align=center;fillColor=#b0e3e6;strokeColor=#0e8088;fontStyle=1;" vertex="1" parent="7SpoKRPtstdozS_-fgGi-118">
          <mxGeometry x="410" y="10" width="60" height="60" as="geometry" />
        </mxCell>
        <mxCell id="7SpoKRPtstdozS_-fgGi-123" style="edgeStyle=orthogonalEdgeStyle;rounded=0;orthogonalLoop=1;jettySize=auto;html=1;exitX=1;exitY=0.5;exitDx=0;exitDy=0;entryX=0;entryY=0.5;entryDx=0;entryDy=0;" edge="1" parent="7SpoKRPtstdozS_-fgGi-118" source="7SpoKRPtstdozS_-fgGi-121" target="7SpoKRPtstdozS_-fgGi-122">
          <mxGeometry relative="1" as="geometry">
            <mxPoint x="350" y="40" as="sourcePoint" />
          </mxGeometry>
        </mxCell>
      </root>
    </mxGraphModel>
  </diagram>
</mxfile>
